<svg xmlns="http://www.w3.org/2000/svg" viewBox="0 0 603.52 603.52"><defs><style>.cls-1{fill:#7c0bff;}.cls-2{fill:#ebd2ff;}.cls-3{fill:#fff;}</style></defs><title>creative pointer</title><g id="Layer_2" data-name="Layer 2"><g id="Layer_1-2" data-name="Layer 1"><path class="cls-1" d="M395.73,0H207.79a74.9,74.9,0,0,0-53,21.94L21.94,154.83A74.9,74.9,0,0,0,0,207.79V395.73a74.86,74.86,0,0,0,21.94,53l132.89,132.9a74.93,74.93,0,0,0,53,21.93H395.73a74.89,74.89,0,0,0,53-21.93l132.9-132.9a74.89,74.89,0,0,0,21.93-53V207.79a74.93,74.93,0,0,0-21.93-53L448.69,21.94A74.86,74.86,0,0,0,395.73,0Z"/><path class="cls-2" d="M408.17,179.06A13.41,13.41,0,0,0,404.6,191a1.74,1.74,0,0,1-.46,1.57L299.92,299.64a1.71,1.71,0,0,1-2.45,0L260.82,264a1.72,1.72,0,0,1,0-2.45c8.3-8.13,55.06-55.32,64.75-99.91a1.86,1.86,0,0,1,.45-.87,1.71,1.71,0,0,1,1-.48c4.16-.37,18.86-2.06,44.89-9.21,13.49-3.69,30-8.84,49.7-16,13.68-5,28.9-10.95,45.66-18.09,2.42-1,4.88-2.09,7.38-3.18l2.65-1.15a1.21,1.21,0,0,1,.74-.15,1.75,1.75,0,0,1,.72.13,7.79,7.79,0,0,1,.66.62,1.55,1.55,0,0,1,.31.89,1.68,1.68,0,0,1-.5,1.28l-57.71,59.29a1.69,1.69,0,0,1-1.54.48,13.46,13.46,0,0,0-11.83,3.9"/><path class="cls-3" d="M446.91,279.76c-44.33,10.87-90.23,58.9-98.12,67.42a1.72,1.72,0,0,1-2.47,0l-36.66-35.68a1.73,1.73,0,0,1,0-2.45l104-106.9a1.75,1.75,0,0,1,1.61-.47A13.47,13.47,0,0,0,431,185.53a1.64,1.64,0,0,1,.42-1.6L489,124.83a1.55,1.55,0,0,1,1.27-.52,1.45,1.45,0,0,1,.87.25,5.74,5.74,0,0,1,.65.66,1.5,1.5,0,0,1,.18.74,1.39,1.39,0,0,1-.13.74c-.37.91-.73,1.77-1.09,2.67l-3,7.47c-6.67,16.95-12.24,32.32-16.85,46.12-6.64,19.89-11.36,36.53-14.67,50.13-6.44,26.22-7.73,41-8,45.14a1.71,1.71,0,0,1-1.31,1.53"/><path class="cls-2" d="M148.24,393.61h0A10.83,10.83,0,0,1,148,378.3l79.74-81.93a10.82,10.82,0,0,1,15.52,15.09L163.55,393.4a10.83,10.83,0,0,1-15.31.21"/><path class="cls-2" d="M182.27,405h0a10.82,10.82,0,0,1-.21-15.31l79.74-81.93a10.83,10.83,0,0,1,15.52,15.1L197.57,404.8a10.81,10.81,0,0,1-15.3.21"/><path class="cls-3" d="M234.22,398h0a10.83,10.83,0,0,1-.2-15.31l34.44-35.39A10.83,10.83,0,0,1,284,362.39l-34.45,35.39a10.82,10.82,0,0,1-15.31.21"/><path class="cls-3" d="M243.31,439.87h0a10.81,10.81,0,0,1-.21-15.3l65.11-66.91a10.83,10.83,0,0,1,15.52,15.1l-65.12,66.91a10.82,10.82,0,0,1-15.3.2"/><path class="cls-3" d="M530,283.27c-4-1.67-18-6.12-30.1,6a27.37,27.37,0,0,0-8.1,19.52v71.69L380.49,491.82H223l-52.24-52.24-39.06,39.06,62.51,62.49a20.06,20.06,0,0,0,14.31,5.93L395,547a20.1,20.1,0,0,0,14.3-5.91L541.12,409.29A20.09,20.09,0,0,0,547.05,395V308.79c0-17.13-13-23.87-17-25.52"/><path class="cls-2" d="M168.58,437.37l-56.89-56.89V223L223,111.7h71.71a27.52,27.52,0,0,0,19.54-8.1c12.1-12.1,7.63-26.09,6-30.09s-8.39-17.05-25.52-17.05H208.52a20,20,0,0,0-14.3,5.94L62.39,194.23a20,20,0,0,0-5.92,14.31V395a20.12,20.12,0,0,0,5.92,14.32l67.07,67.07,2.27,2.28,39.06-39.06Z"/></g></g></svg>