<svg xmlns="http://www.w3.org/2000/svg" viewBox="0 0 438.89 438.89"><defs><style>.cls-1,.cls-3{fill:#fff;}.cls-1,.cls-2{opacity:0.31;}</style></defs><title>transperent logo</title><g id="Layer_2" data-name="Layer 2"><g id="Layer_1-2" data-name="Layer 1"><path class="cls-1" d="M279.31,0H159.57a74.9,74.9,0,0,0-53,21.94L21.94,106.61A74.9,74.9,0,0,0,0,159.57V279.31a74.9,74.9,0,0,0,21.94,53L106.61,417a74.9,74.9,0,0,0,53,21.94H279.31a74.9,74.9,0,0,0,53-21.94L417,332.28a74.9,74.9,0,0,0,21.94-53V159.57a74.9,74.9,0,0,0-21.94-53L332.28,21.94A74.9,74.9,0,0,0,279.31,0Z"/><g class="cls-2"><path class="cls-3" d="M296.83,130.21a9.76,9.76,0,0,0-2.6,8.68,1.31,1.31,0,0,1-.33,1.14L218.1,217.9a1.25,1.25,0,0,1-1.78,0L189.67,192a1.24,1.24,0,0,1,0-1.78c6-5.91,40-40.23,47.08-72.65a1.4,1.4,0,0,1,.33-.64,1.24,1.24,0,0,1,.76-.34c3-.27,13.71-1.51,32.64-6.7,9.81-2.69,21.83-6.43,36.15-11.67,9.94-3.61,21-8,33.19-13.16l5.38-2.31,1.92-.83a.92.92,0,0,1,.54-.11,1.05,1.05,0,0,1,.52.1,4.15,4.15,0,0,1,.49.45,1.12,1.12,0,0,1,.22.64,1.24,1.24,0,0,1-.37.93l-42,43.12a1.25,1.25,0,0,1-1.12.35,9.76,9.76,0,0,0-8.6,2.83"/><path class="cls-3" d="M325,203.44c-32.24,7.91-65.62,42.84-71.36,49a1.26,1.26,0,0,1-1.79,0l-26.66-25.95a1.25,1.25,0,0,1,0-1.78L300.81,147a1.27,1.27,0,0,1,1.17-.34,9.81,9.81,0,0,0,11.45-11.77,1.24,1.24,0,0,1,.31-1.17l41.82-43a1.19,1.19,0,0,1,.93-.37,1,1,0,0,1,.64.18,5.26,5.26,0,0,1,.47.48,1.07,1.07,0,0,1,.12.54,1,1,0,0,1-.09.54c-.26.66-.53,1.28-.79,1.94-.73,1.84-1.46,3.65-2.16,5.43-4.86,12.33-8.91,23.5-12.26,33.54-4.83,14.46-8.26,26.57-10.67,36.46-4.68,19.06-5.62,29.78-5.8,32.82a1.25,1.25,0,0,1-.95,1.11"/><path class="cls-3" d="M107.8,286.23h0a7.88,7.88,0,0,1-.15-11.13l58-59.58a7.87,7.87,0,0,1,11.28,11l-58,59.58a7.86,7.86,0,0,1-11.13.15"/><path class="cls-3" d="M132.55,294.53h0a7.87,7.87,0,0,1-.16-11.13l58-59.59a7.87,7.87,0,0,1,11.29,11l-58,59.59a7.88,7.88,0,0,1-11.13.15"/><path class="cls-3" d="M170.33,289.42h0a7.87,7.87,0,0,1-.15-11.13l25-25.74a7.87,7.87,0,0,1,11.28,11l-25,25.74a7.87,7.87,0,0,1-11.13.15"/><path class="cls-3" d="M176.93,319.88h0a7.88,7.88,0,0,1-.15-11.13l47.36-48.66a7.87,7.87,0,1,1,11.28,11l-47.35,48.65a7.89,7.89,0,0,1-11.14.15"/><path class="cls-3" d="M385.43,206a19.67,19.67,0,0,0-21.89,4.36,19.87,19.87,0,0,0-5.89,14.2v52.13l-81,81H162.19l-38-38L95.8,348.07l45.45,45.44a14.6,14.6,0,0,0,10.41,4.32l135.57,0a14.62,14.62,0,0,0,10.4-4.3l95.87-95.87a14.6,14.6,0,0,0,4.32-10.42V224.56A19.7,19.7,0,0,0,385.43,206"/><path class="cls-3" d="M122.59,318.06,81.22,276.69V162.19l81-81h52.15a20,20,0,0,0,14.21-5.89,20.08,20.08,0,0,0-14.21-34.28h-62.7a14.59,14.59,0,0,0-10.4,4.32L45.37,141.25a14.6,14.6,0,0,0-4.3,10.4V287.22a14.67,14.67,0,0,0,4.3,10.42l48.77,48.78,1.66,1.65,28.4-28.41Z"/></g></g></g></svg>